<?xml version="1.0" encoding="UTF-8" standalone="no"?>
<!-- Created with Inkscape (http://www.inkscape.org/) -->

<svg
   width="51mm"
   height="51mm"
   viewBox="0 0 51 51"
   version="1.1"
   id="svg5"
   inkscape:version="1.1 (c68e22c387, 2021-05-23)"
   sodipodi:docname="logo_hodl_cube.svg"
   xmlns:inkscape="http://www.inkscape.org/namespaces/inkscape"
   xmlns:sodipodi="http://sodipodi.sourceforge.net/DTD/sodipodi-0.dtd"
   xmlns="http://www.w3.org/2000/svg"
   xmlns:svg="http://www.w3.org/2000/svg">
  <sodipodi:namedview
     id="namedview7"
     pagecolor="#ffffff"
     bordercolor="#666666"
     borderopacity="1.0"
     inkscape:pageshadow="2"
     inkscape:pageopacity="0.0"
     inkscape:pagecheckerboard="0"
     inkscape:document-units="mm"
     showgrid="false"
     width="45mm"
     inkscape:zoom="2.9647587"
     inkscape:cx="94.274114"
     inkscape:cy="121.59506"
     inkscape:window-width="1920"
     inkscape:window-height="1017"
     inkscape:window-x="-8"
     inkscape:window-y="-8"
     inkscape:window-maximized="1"
     inkscape:current-layer="layer1" />
  <defs
     id="defs2" />
  <g
     inkscape:label="Vrstva 1"
     inkscape:groupmode="layer"
     id="layer1">
    <g
       id="g15133"
       transform="translate(1.7379232,-48.057657)">
      <g
         id="g14829">
        <g
           aria-label="HODL
"
           id="text2475"
           style="font-weight:bold;font-size:11.3455px;line-height:0;font-family:MuseoModerno;-inkscape-font-specification:'MuseoModerno Bold';stroke-width:0.119807">
          <path
             d="m 4.609106,71.584236 v -10.21104 h 2.0859696 v 4.099003 h 4.4636834 v -4.099003 h 2.085969 v 10.21104 h -2.085969 v -4.27405 H 6.6950756 v 4.27405 z"
             style="font-weight:600;font-size:14.5872px;line-height:1.25;-inkscape-font-specification:'MuseoModerno, Semi-Bold'"
             id="path14693" />
          <path
             d="m 20.056928,71.77387 q -1.225325,0 -2.217254,-0.408442 -0.977343,-0.423029 -1.677528,-1.152389 -0.700186,-0.72936 -1.079453,-1.692115 -0.379267,-0.962755 -0.379267,-2.056795 0,-1.09404 0.379267,-2.042208 0.379267,-0.962755 1.079453,-1.692115 0.700185,-0.72936 1.677528,-1.137802 0.991929,-0.408442 2.217254,-0.408442 1.225325,0 2.202667,0.408442 0.99193,0.408442 1.692116,1.137802 0.700185,0.72936 1.079452,1.692115 0.379268,0.948168 0.379268,2.042208 0,1.09404 -0.379268,2.056795 -0.379267,0.962755 -1.079452,1.692115 -0.700186,0.72936 -1.692116,1.152389 -0.977342,0.408442 -2.202667,0.408442 z m 0,-1.852575 q 0.700186,0 1.298261,-0.247982 0.598075,-0.26257 1.035691,-0.72936 0.452203,-0.481378 0.685599,-1.108627 0.247982,-0.62725 0.247982,-1.371197 0,-0.743947 -0.247982,-1.371197 -0.233396,-0.62725 -0.685599,-1.09404 -0.437616,-0.46679 -1.035691,-0.714773 -0.598075,-0.262569 -1.298261,-0.262569 -0.700185,0 -1.298261,0.262569 -0.598075,0.247983 -1.050278,0.714773 -0.437616,0.46679 -0.685598,1.09404 -0.233396,0.62725 -0.233396,1.371197 0,0.743947 0.233396,1.371197 0.247982,0.627249 0.685598,1.108627 0.452203,0.46679 1.050278,0.72936 0.598076,0.247982 1.298261,0.247982 z"
             style="font-weight:600;font-size:14.5872px;line-height:1.25;-inkscape-font-specification:'MuseoModerno, Semi-Bold'"
             id="path14695" />
          <path
             d="m 26.869131,71.584236 v -10.21104 h 3.442579 q 1.633767,0 2.829917,0.656424 1.19615,0.656424 1.852574,1.808813 0.671012,1.152389 0.671012,2.640283 0,1.487895 -0.671012,2.640283 -0.656424,1.152389 -1.852574,1.808813 -1.19615,0.656424 -2.829917,0.656424 z m 2.08597,-1.837987 h 1.356609 q 0.948168,0 1.677528,-0.393854 0.743947,-0.393855 1.166976,-1.123215 0.423029,-0.743947 0.423029,-1.750464 0,-1.021104 -0.423029,-1.750464 -0.423029,-0.72936 -1.166976,-1.123214 -0.72936,-0.393855 -1.677528,-0.393855 h -1.356609 z"
             style="font-weight:600;font-size:14.5872px;line-height:1.25;-inkscape-font-specification:'MuseoModerno, Semi-Bold'"
             id="path14697" />
          <path
             d="m 39.983013,71.584236 q -0.904406,0 -1.590004,-0.408441 -0.685599,-0.423029 -1.064866,-1.108628 -0.379267,-0.700185 -0.379267,-1.531656 v -7.162315 h 2.085969 v 7.410298 q 0,0.393854 0.277157,0.685598 0.277157,0.277157 0.671011,0.277157 h 2.698633 v 1.837987 z"
             style="font-weight:600;font-size:14.5872px;line-height:1.25;-inkscape-font-specification:'MuseoModerno, Semi-Bold'"
             id="path14699" />
        </g>
        <g
           aria-label="cube"
           id="text29153"
           style="font-size:17.9252px;line-height:1.25;stroke-width:0.630853">
          <path
             d="m 9.4219465,87.071747 q -1.4160908,0 -2.5274531,-0.609457 Q 5.783131,85.852833 5.1378238,84.831097 4.4925166,83.791435 4.4925166,82.500821 q 0,-1.290614 0.6453072,-2.312351 0.6453072,-1.039661 1.7566696,-1.649118 1.1113623,-0.609457 2.5274531,-0.609457 h 1.1113625 v 1.75667 H 9.3860961 q -0.8245592,0 -1.4698664,0.376429 -0.627382,0.358504 -0.9858859,1.003811 -0.358504,0.645307 -0.358504,1.434016 0,0.788709 0.358504,1.434016 0.3585039,0.645307 0.9858859,1.021736 0.6453072,0.358504 1.4698664,0.358504 h 1.1472129 v 1.75667 z"
             style="font-family:MuseoModerno;-inkscape-font-specification:'MuseoModerno, @wght=500';font-variation-settings:'wght' 500"
             id="path12164" />
          <path
             d="m 16.69956,87.286849 q -1.326465,0 -2.31235,-0.519831 -0.985886,-0.537756 -1.523642,-1.469866 -0.537756,-0.93211 -0.537756,-2.097248 v -5.270009 h 2.061398 v 5.252084 q 0,0.699082 0.304728,1.236838 0.322653,0.519831 0.842484,0.824559 0.537756,0.286804 1.165138,0.286804 0.627382,0 1.147213,-0.286804 0.537756,-0.304728 0.842484,-0.824559 0.322654,-0.537756 0.322654,-1.236838 v -5.252084 h 2.061398 v 5.270009 q 0,1.165138 -0.555681,2.097248 -0.537756,0.93211 -1.523642,1.469866 -0.967961,0.519831 -2.294426,0.519831 z"
             style="font-family:MuseoModerno;-inkscape-font-specification:'MuseoModerno, @wght=500';font-variation-settings:'wght' 500"
             id="path12166" />
          <path
             d="m 28.225454,87.286849 q -1.398165,0 -2.473677,-0.591531 -1.075512,-0.591532 -1.684969,-1.684969 -0.591532,-1.111362 -0.591532,-2.617079 v -8.406919 h 2.061398 v 5.323784 h 0.01793 q 0.286803,-0.48398 0.752858,-0.842484 0.466055,-0.358504 1.039662,-0.555681 0.573606,-0.197177 1.218913,-0.197177 1.30854,0 2.294426,0.591531 1.003811,0.573607 1.559492,1.613268 0.573606,1.039662 0.573606,2.437827 0,1.093438 -0.340578,2.007623 -0.322654,0.89626 -0.950036,1.559492 -0.609457,0.663232 -1.487792,1.021736 -0.878334,0.340579 -1.989697,0.340579 z m 0,-1.756669 q 0.788709,0 1.398166,-0.37643 0.609457,-0.394354 0.950035,-1.075511 0.340579,-0.681158 0.340579,-1.577418 0,-0.878335 -0.340579,-1.559492 -0.340578,-0.681158 -0.950035,-1.075512 -0.591532,-0.394355 -1.38024,-0.394355 -0.788709,0 -1.398166,0.394355 -0.609457,0.376429 -0.950036,1.057586 -0.340578,0.681158 -0.340578,1.577418 0,0.89626 0.340578,1.577418 0.340579,0.681157 0.950036,1.075511 0.609457,0.37643 1.38024,0.37643 z"
             style="font-family:MuseoModerno;-inkscape-font-specification:'MuseoModerno, @wght=500';font-variation-settings:'wght' 500"
             id="path12168" />
          <path
             d="m 39.5721,87.071747 q -1.541567,0 -2.706705,-0.573607 -1.147213,-0.591531 -1.79252,-1.613268 -0.645307,-1.039661 -0.645307,-2.384051 0,-1.416091 0.573606,-2.491603 0.573606,-1.075512 1.577418,-1.684969 1.003811,-0.609456 2.31235,-0.609456 1.469867,0 2.419902,0.627382 0.950036,0.627382 1.398166,1.684968 0.466055,1.057587 0.466055,2.366127 0,0.179252 -0.01792,0.412279 -0.01792,0.233028 -0.05378,0.358504 h -6.488922 q 0.107551,0.717008 0.519831,1.200989 0.412279,0.466055 1.039661,0.717008 0.627382,0.233027 1.398166,0.233027 h 2.455752 v 1.75667 z m -2.975583,-5.305859 h 4.51715 q -0.01792,-0.340579 -0.107551,-0.681158 -0.0717,-0.340579 -0.250953,-0.645307 -0.161327,-0.304728 -0.430205,-0.519831 -0.250953,-0.233027 -0.609457,-0.358504 -0.358504,-0.143401 -0.824559,-0.143401 -0.537756,0 -0.950035,0.215102 -0.41228,0.197177 -0.699083,0.537756 -0.286803,0.322654 -0.44813,0.752858 -0.143402,0.41228 -0.197177,0.842485 z"
             style="font-family:MuseoModerno;-inkscape-font-specification:'MuseoModerno, @wght=500';font-variation-settings:'wght' 500"
             id="path12170" />
        </g>
      </g>
      <g
         fill="none"
         stroke="#000000"
         stroke-width="1"
         fill-rule="evenodd"
         stroke-linecap="square"
         stroke-linejoin="bevel"
         id="g301"
         transform="matrix(0.08466667,0,0,0.08466667,-169.51987,178.79655)">
        <g
           fill="none"
           stroke="#000000"
           stroke-opacity="1"
           stroke-width="1"
           stroke-linecap="square"
           stroke-linejoin="bevel"
           font-family="Arial"
           font-size="12px"
           font-weight="400"
           font-style="normal"
           id="g165" />
        <g
           fill="#000000"
           fill-opacity="1"
           stroke="#000000"
           stroke-opacity="1"
           stroke-width="1"
           stroke-linecap="butt"
           stroke-linejoin="miter"
           stroke-miterlimit="2"
           font-family="Arial"
           font-size="12px"
           font-weight="400"
           font-style="normal"
           id="g167" />
        <g
           fill="#000000"
           fill-opacity="1"
           stroke="#000000"
           stroke-opacity="1"
           stroke-width="5"
           stroke-linecap="round"
           stroke-linejoin="bevel"
           font-family="Arial"
           font-size="12px"
           font-weight="400"
           font-style="normal"
           id="g297"
           transform="translate(602.22255,-2396.965)">
          <polyline
             fill="none"
             vector-effect="none"
             points="1459.18,1419.74 1459.18,1418.26 "
             id="polyline169" />
          <polyline
             fill="none"
             vector-effect="none"
             points="1902.09,888.24 1902.09,889.716 "
             id="polyline171" />
          <polyline
             fill="none"
             vector-effect="none"
             points="1385.36,858.712 1457.7,858.712 "
             id="polyline173" />
          <polyline
             fill="none"
             vector-effect="none"
             points="1457.7,1419.74 1459.18,1419.74 "
             id="polyline175" />
          <polyline
             fill="none"
             vector-effect="none"
             points="1385.36,1449.26 1457.7,1449.26 "
             id="polyline177" />
          <polyline
             fill="none"
             vector-effect="none"
             points="1902.09,1419.74 1902.09,1418.26 "
             id="polyline179" />
          <polyline
             fill="none"
             vector-effect="none"
             points="1457.7,1418.26 1549.24,1418.26 "
             id="polyline181" />
          <polyline
             fill="none"
             vector-effect="none"
             points="1549.24,1418.26 1549.24,1449.26 "
             id="polyline183" />
          <polyline
             fill="none"
             vector-effect="none"
             points="1549.24,1449.26 1634.87,1449.26 "
             id="polyline185" />
          <polyline
             fill="none"
             vector-effect="none"
             points="1634.87,1449.26 1634.87,1418.26 "
             id="polyline187" />
          <polyline
             fill="none"
             vector-effect="none"
             points="1634.87,1418.26 1726.4,1418.26 "
             id="polyline189" />
          <polyline
             fill="none"
             vector-effect="none"
             points="1726.4,1418.26 1726.4,1449.26 "
             id="polyline191" />
          <polyline
             fill="none"
             vector-effect="none"
             points="1812.03,1418.26 1903.57,1418.26 "
             id="polyline193" />
          <polyline
             fill="none"
             vector-effect="none"
             points="1903.57,1418.26 1903.57,1449.26 "
             id="polyline195" />
          <polyline
             fill="none"
             vector-effect="none"
             points="1903.57,888.24 1902.09,888.24 "
             id="polyline197" />
          <polyline
             fill="none"
             vector-effect="none"
             points="1812.03,1449.26 1812.03,1418.26 "
             id="polyline199" />
          <polyline
             fill="none"
             vector-effect="none"
             points="1903.57,1449.26 1975.91,1449.26 "
             id="polyline201" />
          <polyline
             fill="none"
             vector-effect="none"
             points="1975.91,1376.92 1975.91,1449.26 "
             id="polyline203" />
          <polyline
             fill="none"
             vector-effect="none"
             points="1726.4,1449.26 1812.03,1449.26 "
             id="polyline205" />
          <polyline
             fill="none"
             vector-effect="none"
             points="1457.7,858.712 1457.7,889.716 "
             id="polyline207" />
          <polyline
             fill="none"
             vector-effect="none"
             points="1457.7,889.716 1549.24,889.716 "
             id="polyline209" />
          <polyline
             fill="none"
             vector-effect="none"
             points="1385.36,858.712 1385.36,931.055 "
             id="polyline211" />
          <polyline
             fill="none"
             vector-effect="none"
             points="1975.91,1199.76 1975.91,1285.39 "
             id="polyline213" />
          <polyline
             fill="none"
             vector-effect="none"
             points="1385.36,931.055 1416.36,931.055 "
             id="polyline215" />
          <polyline
             fill="none"
             vector-effect="none"
             points="1812.03,858.712 1812.03,889.716 "
             id="polyline217" />
          <polyline
             fill="none"
             vector-effect="none"
             points="1385.36,1022.59 1385.36,1108.22 "
             id="polyline219" />
          <polyline
             fill="none"
             vector-effect="none"
             points="1385.36,1108.22 1416.36,1108.22 "
             id="polyline221" />
          <polyline
             fill="none"
             vector-effect="none"
             points="1457.7,1449.26 1457.7,1418.26 "
             id="polyline223" />
          <polyline
             fill="none"
             vector-effect="none"
             points="1903.57,858.712 1975.91,858.712 "
             id="polyline225" />
          <polyline
             fill="none"
             vector-effect="none"
             points="1416.36,1022.59 1385.36,1022.59 "
             id="polyline227" />
          <polyline
             fill="none"
             vector-effect="none"
             points="1944.91,1285.39 1944.91,1376.92 "
             id="polyline229" />
          <polyline
             fill="none"
             vector-effect="none"
             points="1416.36,1199.76 1385.36,1199.76 "
             id="polyline231" />
          <polyline
             fill="none"
             vector-effect="none"
             points="1920.99,1329.08 1920.99,1317.27 "
             id="polyline233" />
          <polyline
             fill="none"
             vector-effect="none"
             points="1459.18,888.24 1459.18,889.716 "
             id="polyline235" />
          <polyline
             fill="none"
             vector-effect="none"
             points="1385.36,1199.76 1385.36,1285.39 "
             id="polyline237" />
          <polyline
             fill="none"
             vector-effect="none"
             points="1416.36,931.055 1416.36,1022.59 "
             id="polyline239" />
          <polyline
             fill="none"
             vector-effect="none"
             points="1416.36,1108.22 1416.36,1199.76 "
             id="polyline241" />
          <polyline
             fill="none"
             vector-effect="none"
             points="1897.37,1329.08 1920.99,1329.08 "
             id="polyline243" />
          <polyline
             fill="none"
             vector-effect="none"
             points="1416.36,1376.92 1385.36,1376.92 "
             id="polyline245" />
          <polyline
             fill="none"
             vector-effect="none"
             points="1975.91,858.712 1975.91,931.055 "
             id="polyline247" />
          <polyline
             fill="none"
             vector-effect="none"
             points="1897.37,1329.08 1897.37,1317.27 "
             id="polyline249" />
          <polyline
             fill="none"
             vector-effect="none"
             points="1944.91,1376.92 1975.91,1376.92 "
             id="polyline251" />
          <polyline
             fill="none"
             vector-effect="none"
             points="1549.24,858.712 1634.87,858.712 "
             id="polyline253" />
          <polyline
             fill="none"
             vector-effect="none"
             points="1385.36,1285.39 1416.36,1285.39 "
             id="polyline255" />
          <polyline
             fill="none"
             vector-effect="none"
             points="1634.87,889.716 1726.4,889.716 "
             id="polyline257" />
          <polyline
             fill="none"
             vector-effect="none"
             points="1903.57,889.716 1903.57,858.712 "
             id="polyline259" />
          <polyline
             fill="none"
             vector-effect="none"
             points="1549.24,889.716 1549.24,858.712 "
             id="polyline261" />
          <polyline
             fill="none"
             vector-effect="none"
             points="1975.91,931.055 1944.91,931.055 "
             id="polyline263" />
          <polyline
             fill="none"
             vector-effect="none"
             points="1634.87,858.712 1634.87,889.716 "
             id="polyline265" />
          <polyline
             fill="none"
             vector-effect="none"
             points="1903.57,1419.74 1902.09,1419.74 "
             id="polyline267" />
          <polyline
             fill="none"
             vector-effect="none"
             points="1457.7,888.24 1459.18,888.24 "
             id="polyline269" />
          <polyline
             fill="none"
             vector-effect="none"
             points="1975.91,1108.22 1944.91,1108.22 "
             id="polyline271" />
          <polyline
             fill="none"
             vector-effect="none"
             points="1726.4,889.716 1726.4,858.712 "
             id="polyline273" />
          <polyline
             fill="none"
             vector-effect="none"
             points="1726.4,858.712 1812.03,858.712 "
             id="polyline275" />
          <polyline
             fill="none"
             vector-effect="none"
             points="1812.03,889.716 1903.57,889.716 "
             id="polyline277" />
          <polyline
             fill="none"
             vector-effect="none"
             points="1385.36,1376.92 1385.36,1449.26 "
             id="polyline279" />
          <polyline
             fill="none"
             vector-effect="none"
             points="1975.91,1022.59 1975.91,1108.22 "
             id="polyline281" />
          <polyline
             fill="none"
             vector-effect="none"
             points="1416.36,1285.39 1416.36,1376.92 "
             id="polyline283" />
          <polyline
             fill="none"
             vector-effect="none"
             points="1944.91,931.055 1944.91,1022.59 "
             id="polyline285" />
          <polyline
             fill="none"
             vector-effect="none"
             points="1897.37,1317.27 1920.99,1317.27 "
             id="polyline287" />
          <polyline
             fill="none"
             vector-effect="none"
             points="1944.91,1022.59 1975.91,1022.59 "
             id="polyline289" />
          <polyline
             fill="none"
             vector-effect="none"
             points="1944.91,1108.22 1944.91,1199.76 "
             id="polyline291" />
          <polyline
             fill="none"
             vector-effect="none"
             points="1944.91,1199.76 1975.91,1199.76 "
             id="polyline293" />
          <polyline
             fill="none"
             vector-effect="none"
             points="1975.91,1285.39 1944.91,1285.39 "
             id="polyline295" />
        </g>
        <g
           fill="none"
           stroke="#000000"
           stroke-opacity="1"
           stroke-width="1"
           stroke-linecap="square"
           stroke-linejoin="bevel"
           font-family="Arial"
           font-size="12px"
           font-weight="400"
           font-style="normal"
           id="g299" />
      </g>
    </g>
  </g>
</svg>
