#define battery_3_3_width 16
#define battery_3_3_height 10
static unsigned char battery_3_3_bits[] = {
   0xfe, 0x1f, 0x03, 0x30, 0xd9, 0x26, 0xd9, 0xe6, 0xd9, 0xa6, 0xd9, 0xa6,
   0xd9, 0xe6, 0xd9, 0x26, 0x03, 0x30, 0xfe, 0x1f };
