#define battery_2_3_width 16
#define battery_2_3_height 10
static unsigned char battery_2_3_bits[] = {
   0xfe, 0x1f, 0x03, 0x30, 0xd9, 0x20, 0xd9, 0xe0, 0xd9, 0xa0, 0xd9, 0xa0,
   0xd9, 0xe0, 0xd9, 0x20, 0x03, 0x30, 0xfe, 0x1f };
