#define battery_1_3_width 16
#define battery_1_3_height 10
static unsigned char battery_1_3_bits[] = {
   0xfe, 0x1f, 0x03, 0x30, 0x19, 0x20, 0x19, 0xe0, 0x19, 0xa0, 0x19, 0xa0,
   0x19, 0xe0, 0x19, 0x20, 0x03, 0x30, 0xfe, 0x1f };
